<svg xmlns="http://www.w3.org/2000/svg" version="1.1" xmlns:xlink="http://www.w3.org/1999/xlink" xmlns:svgjs="http://svgjs.dev/svgjs" width="1000" height="171" viewBox="0 0 1000 171"><g transform="matrix(1,0,0,1,-0.6060404579323517,-0.6198270432554978)"><svg viewBox="0 0 396 68" data-background-color="#ffffff" preserveAspectRatio="xMidYMid meet" height="171" width="1000" xmlns="http://www.w3.org/2000/svg" xmlns:xlink="http://www.w3.org/1999/xlink"><g id="tight-bounds" transform="matrix(1,0,0,1,0.23999202134120878,0.24648092948172007)"><svg viewBox="0 0 395.52 67.50703814103655" height="67.50703814103655" width="395.52"><g><svg viewBox="0 0 494.2980291843865 84.36639337881668" height="67.50703814103655" width="395.52"><g transform="matrix(1,0,0,1,98.77802918438653,11.659899519069455)"><svg viewBox="0 0 395.52 61.04659434067777" height="61.04659434067777" width="395.52"><g id="textblocktransform"><svg viewBox="0 0 395.52 61.04659434067777" height="61.04659434067777" width="395.52" id="textblock"><g><svg viewBox="0 0 395.52 61.04659434067777" height="61.04659434067777" width="395.52"><g transform="matrix(1,0,0,1,0,0)"><svg width="395.52" viewBox="1.2699999809265137 -33.08000183105469 218.26998901367188 33.69000244140625" height="61.04659434067777" data-palette-color="#4b91f1"><path d="M18.75-33.08L18.75-33.08Q23.32-33.08 26.54-31.49L26.54-31.49 26.54-24.02 26.49-23.97Q25.12-26.07 20.73-26.76L20.73-26.76Q19.43-26.98 17.46-26.98 15.48-26.98 13.57-26.23 11.67-25.49 10.45-24.12L10.45-24.12Q8.08-21.46 8.08-16.53L8.08-16.53Q8.08-10.79 11.08-7.98L11.08-7.98Q13.57-5.64 17.68-5.64L17.68-5.64Q22.31-5.64 25.2-7.62L25.2-7.62Q26.25-8.33 26.98-9.38L26.98-9.38 27.05-9.33 27.05-2.49Q23.32 0.61 16.99 0.61L16.99 0.61Q9.55 0.61 5.32-4.13L5.32-4.13Q1.27-8.64 1.27-16.09L1.27-16.09Q1.27-23.97 5.71-28.52L5.71-28.52Q10.21-33.08 18.75-33.08ZM39.57-5.86L49.53-5.86Q51.05-5.86 51.63-6.15L51.63-6.15 51.73-6.13 51.49 0 33.2 0 33.2-32.64Q33.86-32.59 34.67-32.57L34.67-32.57 36.37-32.52Q38.08-32.47 40.09-32.47L40.09-32.47Q45.68-32.47 51.14-32.67L51.14-32.67Q50.88-30.52 50.88-26.93L50.88-26.93Q50.88-26.54 50.93-26.34L50.93-26.34 50.88-26.27Q49.61-26.64 47.26-26.64L47.26-26.64 39.57-26.64 39.57-20.41 45.36-20.41Q48.04-20.41 48.58-20.56L48.58-20.56 48.65-14.53Q47.48-14.65 45.63-14.65L45.63-14.65 39.57-14.65 39.57-5.86ZM74.41 0.2L68.75-12.62Q68.01-12.57 67.18-12.57 66.35-12.57 64.72-12.7L64.72-12.7 64.72 0 58.25 0 58.25-32.64Q61.66-33.08 66.65-33.08L66.65-33.08Q73.43-33.08 76.77-30.58 80.1-28.08 80.1-22.85L80.1-22.85Q80.1-18.8 77.05-15.92L77.05-15.92Q76.04-14.99 74.75-14.31L74.75-14.31 79.73-3.81Q81.2-0.56 81.98 0.05L81.98 0.05 81.86 0.17Q79.49-0.22 74.41 0.2L74.41 0.2ZM67.11-27.32L67.11-27.32Q65.86-27.32 64.72-27.2L64.72-27.2 64.72-17.87Q65.91-17.7 67.52-17.7 69.14-17.7 70.23-17.98 71.33-18.26 72.14-18.85L72.14-18.85Q73.87-20.14 73.87-22.73 73.87-25.32 72.07-26.37L72.07-26.37Q70.38-27.32 67.11-27.32ZM99.09-27L99.09 0.15Q97.92 0 93.06 0L93.06 0 92.28 0 92.28-27 87.44-27Q85.3-27 84.9-26.78 84.51-26.56 84.29-26.39L84.29-26.39 84.22-26.42 84.22-32.67 84.29-32.74Q85.1-32.47 88.64-32.47L88.64-32.47 103.95-32.47Q106.1-32.47 106.49-32.69 106.88-32.91 107.1-33.08L107.1-33.08 107.17-33.06 107.17-26.81 107.1-26.73Q106.29-27 102.75-27L102.75-27 99.09-27ZM113.17 0L113.17-32.57Q115.62-32.47 116.13-32.47L116.13-32.47 117.89-32.47Q119.18-32.47 119.96-32.67L119.96-32.67 119.94 0 113.17 0ZM146.15-20.07L146.23-14.04Q145.06-14.16 143.2-14.16L143.2-14.16 135.8-14.16 135.8 0 129.11 0 129.11-32.64Q129.77-32.59 130.63-32.57L130.63-32.57 132.43-32.52Q134.29-32.47 136.29-32.47L136.29-32.47Q142.3-32.47 147.77-32.67L147.77-32.67Q147.5-30.52 147.5-26.93L147.5-26.93Q147.5-26.54 147.55-26.34L147.55-26.34 147.5-26.27Q146.2-26.64 143.88-26.64L143.88-26.64 135.8-26.64 135.8-19.92 142.93-19.92Q145.62-19.92 146.15-20.07L146.15-20.07ZM154.82 0L154.82-32.57Q157.26-32.47 157.77-32.47L157.77-32.47 159.53-32.47Q160.82-32.47 161.61-32.67L161.61-32.67 161.58 0 154.82 0ZM177.13-5.86L187.09-5.86Q188.61-5.86 189.19-6.15L189.19-6.15 189.29-6.13 189.05 0 170.76 0 170.76-32.64Q171.42-32.59 172.22-32.57L172.22-32.57 173.93-32.52Q175.64-32.47 177.64-32.47L177.64-32.47Q183.23-32.47 188.7-32.67L188.7-32.67Q188.43-30.52 188.43-26.93L188.43-26.93Q188.43-26.54 188.48-26.34L188.48-26.34 188.43-26.27Q187.17-26.64 184.82-26.64L184.82-26.64 177.13-26.64 177.13-20.41 182.92-20.41Q185.6-20.41 186.14-20.56L186.14-20.56 186.21-14.53Q185.04-14.65 183.19-14.65L183.19-14.65 177.13-14.65 177.13-5.86ZM211.97 0.2L206.3-12.62Q205.57-12.57 204.74-12.57 203.91-12.57 202.27-12.7L202.27-12.7 202.27 0 195.81 0 195.81-32.64Q199.22-33.08 204.2-33.08L204.2-33.08Q210.99-33.08 214.32-30.58 217.66-28.08 217.66-22.85L217.66-22.85Q217.66-18.8 214.6-15.92L214.6-15.92Q213.6-14.99 212.31-14.31L212.31-14.31 217.29-3.81Q218.75-0.56 219.54 0.05L219.54 0.05 219.41 0.17Q217.05-0.22 211.97 0.2L211.97 0.2ZM204.67-27.32L204.67-27.32Q203.42-27.32 202.27-27.2L202.27-27.2 202.27-17.87Q203.47-17.7 205.08-17.7 206.69-17.7 207.79-17.98 208.89-18.26 209.7-18.85L209.7-18.85Q211.43-20.14 211.43-22.73 211.43-25.32 209.62-26.37L209.62-26.37Q207.94-27.32 204.67-27.32Z" opacity="1" transform="matrix(1,0,0,1,0,0)" fill="#4b91f1" class="undefined-text-0" data-fill-palette-color="primary" id="text-0"></path></svg></g></svg></g></svg></g></svg></g><g><svg viewBox="0 0 84.36639337881668 84.36639337881668" height="84.36639337881668" width="84.36639337881668"><g><svg xmlns="http://www.w3.org/2000/svg" data-name="Layer 1" viewBox="11 11 18 18" x="0" y="0" height="84.36639337881668" width="84.36639337881668" class="icon-icon-0" data-fill-palette-color="accent" id="icon-0"><polygon points="29 20 26.52 18.25 27.8 15.5 24.77 15.23 24.5 12.2 21.75 13.48 20 11 18.25 13.48 15.5 12.2 15.23 15.23 12.2 15.5 13.48 18.25 11 20 13.48 21.75 12.2 24.5 15.23 24.77 15.5 27.8 18.25 26.52 20 29 21.75 26.52 24.5 27.8 24.77 24.77 27.8 24.5 26.52 21.75 29 20" fill="#4b91f1" data-fill-palette-color="accent"></polygon></svg></g></svg></g></svg></g><defs></defs></svg><rect width="395.52" height="67.50703814103655" fill="none" stroke="none" visibility="hidden"></rect></g></svg></g></svg>